<svg xmlns="http://www.w3.org/2000/svg" viewBox="0 0 1024 1536" role="img" aria-labelledby="title desc">
  <title id="title">Vera Reel, Video Producer</title>
  <desc id="desc">Stylized production specialist with storyboard frames and camera deck colors.</desc>
  <defs>
    <linearGradient id="bg" x1="0" x2="1" y1="0" y2="1">
      <stop offset="0" stop-color="#effaf9"/>
      <stop offset="1" stop-color="#f7efe0"/>
    </linearGradient>
    <linearGradient id="coat" x1="0" x2="1" y1="0" y2="1">
      <stop offset="0" stop-color="#1f8f9a"/>
      <stop offset="1" stop-color="#123c58"/>
    </linearGradient>
  </defs>
  <rect width="1024" height="1536" fill="url(#bg)"/>
  <circle cx="230" cy="220" r="118" fill="#d9f1ee"/>
  <circle cx="790" cy="320" r="152" fill="#eadcb8"/>
  <rect x="140" y="1040" width="744" height="360" rx="180" fill="#d9c7a4"/>
  <path d="M320 710c-74 92-132 228-148 396 82 112 208 174 340 174s258-62 340-174c-16-168-74-304-148-396-64 54-128 82-192 82s-128-28-192-82z" fill="url(#coat)"/>
  <path d="M380 732l132 236 132-236c-42 32-86 48-132 48s-90-16-132-48z" fill="#f7efe0"/>
  <circle cx="512" cy="492" r="210" fill="#c48761"/>
  <path d="M312 478c40-162 126-236 258-222 112 12 180 84 194 218-82-52-160-78-234-78-86 0-158 28-218 82z" fill="#2b2730"/>
  <path d="M334 514c34 94 94 164 178 164s144-70 178-164c-74 34-134 50-178 50s-104-16-178-50z" fill="#b57455"/>
  <circle cx="432" cy="496" r="18" fill="#1d2732"/>
  <circle cx="594" cy="496" r="18" fill="#1d2732"/>
  <path d="M460 590c40 30 78 30 116 0" fill="none" stroke="#7a4436" stroke-width="14" stroke-linecap="round"/>
  <rect x="214" y="866" width="596" height="174" rx="28" fill="#172d42"/>
  <rect x="246" y="898" width="112" height="78" rx="12" fill="#1f8f9a"/>
  <rect x="378" y="898" width="112" height="78" rx="12" fill="#f7efe0"/>
  <rect x="510" y="898" width="112" height="78" rx="12" fill="#e0b557"/>
  <rect x="642" y="898" width="112" height="78" rx="12" fill="#1f8f9a"/>
  <path d="M246 1008h508" stroke="#f7efe0" stroke-width="18" stroke-linecap="round"/>
  <rect x="712" y="694" width="138" height="96" rx="20" fill="#172d42"/>
  <circle cx="754" cy="742" r="24" fill="#1f8f9a"/>
  <circle cx="812" cy="742" r="18" fill="#e0b557"/>
  <path d="M850 720l72-42v128l-72-42z" fill="#172d42"/>
  <path d="M248 1198c146 76 382 76 528 0" fill="none" stroke="#e0b557" stroke-width="24" stroke-linecap="round"/>
</svg>
